<?xml version="1.0" standalone="no"?>
<!DOCTYPE svg PUBLIC "-//W3C//DTD SVG 20010904//EN"
 "http://www.w3.org/TR/2001/REC-SVG-20010904/DTD/svg10.dtd">
<svg version="1.0" xmlns="http://www.w3.org/2000/svg"
 width="512.000000pt" height="512.000000pt" viewBox="0 0 512.000000 512.000000"
 preserveAspectRatio="xMidYMid meet">
<metadata>
Created by potrace 1.11, written by Peter Selinger 2001-2013
</metadata>
<g transform="translate(0.000000,512.000000) scale(0.100000,-0.100000)"
fill="#000000" stroke="none">
<path d="M0 2560 l0 -2560 2560 0 2560 0 0 2560 0 2560 -2560 0 -2560 0 0
-2560z m2757 1364 c133 -19 260 -56 345 -99 36 -18 70 -30 74 -27 4 4 4 1 0
-5 -4 -7 -4 -13 1 -13 4 0 24 -16 44 -35 20 -19 40 -31 44 -27 5 4 5 2 2 -4
-3 -6 3 -34 13 -63 56 -145 -23 -315 -164 -356 -74 -22 -113 -16 -286 43 -119
40 -147 46 -242 50 -128 5 -196 -12 -258 -65 -55 -47 -80 -99 -80 -165 0 -124
68 -167 431 -277 282 -85 390 -130 509 -211 70 -47 171 -154 210 -223 45 -77
80 -198 88 -304 27 -335 -101 -614 -363 -788 -207 -138 -434 -190 -733 -167
-337 26 -556 97 -682 220 -69 68 -97 140 -86 226 8 71 9 76 37 121 13 22 23
43 22 47 -1 3 4 12 12 18 8 7 15 10 15 6 0 -3 23 6 51 20 47 25 56 26 142 21
75 -4 119 -14 242 -56 199 -68 286 -85 396 -78 91 6 206 43 202 65 -2 6 3 9
10 6 18 -6 81 61 72 77 -5 7 -4 10 2 6 16 -10 45 63 50 125 4 40 1 71 -11 100
-40 106 -125 152 -456 248 -196 57 -321 101 -395 138 -129 64 -247 163 -297
250 -14 23 -28 39 -33 35 -4 -5 -5 -3 -1 4 3 6 -3 35 -15 65 -28 70 -32 100
-32 243 0 121 23 246 57 320 8 17 16 37 18 45 2 8 6 17 9 20 3 3 22 30 42 60
20 30 46 68 59 85 12 16 17 26 11 22 -6 -4 -14 -3 -17 2 -4 5 2 8 11 6 22 -3
55 24 46 38 -3 5 -1 7 4 4 13 -8 36 17 25 28 -4 5 -2 5 5 1 7 -4 33 9 59 30
100 76 292 153 429 173 98 14 250 12 362 -5z"/>
</g>
</svg>
